<svg width="310" height="40" viewBox="0 0 310 40" fill="none" xmlns="http://www.w3.org/2000/svg">
<path fill-rule="evenodd" clip-rule="evenodd" d="M34.2888 5.38547C34.2888 7.31195 33.9099 9.18221 33.1671 10.9438C32.4468 12.6454 31.4188 14.1708 30.1058 15.4826C28.7927 16.7944 27.2658 17.8214 25.5625 18.541C23.7992 19.2868 21.9309 19.6616 19.9988 19.6616C18.0667 19.6616 16.1984 19.2831 14.4351 18.541C12.7319 17.8214 11.205 16.7944 9.89191 15.4826C8.57884 14.1708 7.55089 12.6454 6.83058 10.9438C6.0915 9.18221 5.71259 7.3157 5.71259 5.38547V4.80078L15.9246 4.80078L19.9988 10.7601L24.0731 4.80078L34.2851 4.80078V5.38547H34.2888ZM34.2884 34.6159C34.2884 32.6894 33.9095 30.8192 33.1667 29.0576C32.4463 27.356 31.4184 25.8306 30.1053 24.5188C28.7922 23.207 27.2653 22.18 25.5621 21.4604C23.7988 20.7145 21.9305 20.3397 19.9984 20.3397C18.0663 20.3397 16.198 20.7183 14.4347 21.4604C12.7315 22.18 11.2046 23.207 9.89149 24.5188C8.57841 25.8306 7.55046 27.356 6.83015 29.0576C6.09107 30.8192 5.71216 32.6857 5.71216 34.6159V35.2006H15.9241L19.9984 29.2413L24.0727 35.2006L34.2847 35.2006V34.6159H34.2884Z" fill="currentColor"/>
<path d="M60.1703 12.6597V14.5466L65.2372 14.5466V27.5L67.4845 27.5V14.5466H72.5301V12.6597L60.1703 12.6597ZM76.1466 27.5V20.7371H83.6516V27.5H85.8988V12.6597L83.6516 12.6597V18.8291H76.1466V12.6597L73.8994 12.6597V27.5H76.1466ZM88.8738 27.5L99.05 27.5V25.592L91.121 25.592V20.8431L98.4564 20.8431V18.9351L91.121 18.9351V14.5466L98.7744 14.5466V12.6597L88.8738 12.6597L88.8738 27.5ZM105.427 12.6597L105.427 27.5H107.611V16.7938C107.611 15.9246 107.611 15.2674 107.59 14.8434L112.381 27.5H114.989L119.674 14.8434C119.653 15.2674 119.653 15.9246 119.653 16.7938V27.5L121.858 27.5V12.6597L118.36 12.6597L114.247 23.7475C114.141 24.0231 113.95 24.5319 113.717 25.2528C113.484 24.5956 113.314 24.1079 113.166 23.7475L108.968 12.6597L105.427 12.6597ZM123.052 27.5H125.447L127.058 23.2175H133.588L135.221 27.5H137.722L131.701 12.6597L129.051 12.6597L123.052 27.5ZM127.779 21.3307L129.836 15.8822C130.027 15.437 130.196 14.9918 130.345 14.5466L130.811 15.8822L132.889 21.3307H127.779ZM138.917 12.6597V27.5H141.164V21.1823H144.619C146.718 21.1823 147.482 21.9031 147.482 24.0019V27.5H149.729V23.5779C149.729 21.6911 148.775 20.4191 147.248 20.1647C147.99 19.9315 148.648 19.5075 149.199 18.8715C149.75 18.2354 150.026 17.4722 150.026 16.5606C150.026 14.0802 148.202 12.6597 145.319 12.6597L138.917 12.6597ZM141.164 14.5466L144.831 14.5466C146.697 14.5466 147.715 15.3522 147.715 16.8998C147.715 18.4474 146.697 19.2743 144.831 19.2743H141.164V14.5466ZM151.49 19.9951C151.49 24.85 154.352 27.8392 158.655 27.8392C160.5 27.8392 161.984 27.3516 163.15 26.3976C164.316 25.4436 164.994 24.1291 165.185 22.4967H162.896C162.535 24.5956 160.966 25.9524 158.655 25.9524C155.857 25.9524 153.843 23.6203 153.843 19.9951C153.843 16.4122 155.815 14.2074 158.677 14.2074C160.966 14.2074 162.408 15.4794 162.747 17.5994L165.164 17.5994C164.867 14.483 162.281 12.2993 158.719 12.2993C157.341 12.2993 156.111 12.6173 155.03 13.2534C152.825 14.5254 151.49 16.9422 151.49 19.9951ZM170.399 21.2459V27.5H172.667V21.2459L177.988 12.6597H175.465L172.497 17.6842L171.543 19.3379C171.204 18.6807 170.907 18.1294 170.632 17.6842L167.706 12.6597L165.12 12.6597L170.399 21.2459ZM192.607 25.592H184.975V12.6597L182.728 12.6597V27.5L192.607 27.5V25.592ZM192.257 27.5H194.652L196.264 23.2175L202.793 23.2175L204.426 27.5H206.927L200.906 12.6597L198.256 12.6597L192.257 27.5ZM196.984 21.3307L199.041 15.8822C199.232 15.437 199.401 14.9918 199.55 14.5466L200.016 15.8822L202.094 21.3307L196.984 21.3307ZM208.122 27.5L213.634 27.5C215.309 27.5 216.665 27.182 217.747 26.5248C218.807 25.8676 219.337 24.7864 219.337 23.2811C219.337 21.4367 218.171 20.1647 216.305 19.6559C217.81 19.2107 218.934 18.0022 218.934 16.391C218.934 13.8682 217.047 12.6597 214.1 12.6597L208.122 12.6597V27.5ZM210.348 20.6947H213.825C216.114 20.6947 217.026 21.5427 217.026 23.1539C217.026 24.7864 216.029 25.592 213.888 25.592H210.348V20.6947ZM210.348 14.5466L213.888 14.5466C215.711 14.5466 216.623 15.2462 216.623 16.6242C216.623 18.0022 215.648 18.8079 213.803 18.8079H210.348V14.5466ZM224.546 22.6027C224.631 25.804 227.048 27.8392 230.737 27.8392C234.362 27.8392 236.588 25.8888 236.588 23.2811C236.588 21.0551 235.019 19.6771 232.497 19.1471L229.931 18.5958C228.214 18.193 227.366 17.557 227.366 16.3698C227.366 15.7338 227.663 15.2038 228.278 14.801C228.871 14.3982 229.613 14.2074 230.525 14.2074C232.581 14.2074 233.875 15.3098 233.981 16.9422H236.291C236.207 15.5218 235.655 14.3982 234.659 13.5502C233.641 12.7234 232.285 12.2993 230.61 12.2993C227.43 12.2993 225.055 14.1014 225.055 16.5606C225.055 18.7655 226.73 20.1647 229.189 20.6947L231.521 21.2035C233.323 21.5639 234.277 22.2635 234.277 23.5143C234.277 25.0408 232.942 25.9524 230.801 25.9524C228.575 25.9524 226.963 24.7016 226.857 22.6027H224.546ZM237.766 19.9951C237.766 24.85 240.628 27.8392 244.932 27.8392C246.776 27.8392 248.26 27.3516 249.426 26.3976C250.592 25.4436 251.271 24.1291 251.461 22.4967L249.172 22.4967C248.811 24.5956 247.243 25.9524 244.932 25.9524C242.133 25.9524 240.119 23.6203 240.119 19.9951C240.119 16.4122 242.091 14.2074 244.953 14.2074C247.243 14.2074 248.684 15.4794 249.023 17.5994H251.44C251.143 14.483 248.557 12.2993 244.995 12.2993C243.617 12.2993 242.388 12.6173 241.307 13.2534C239.102 14.5254 237.766 16.9422 237.766 19.9951ZM255.588 27.5V20.7371H263.093V27.5L265.34 27.5V12.6597H263.093V18.8291H255.588V12.6597L253.341 12.6597V27.5H255.588ZM267.446 20.0799C267.446 21.6487 267.764 23.0267 268.379 24.1927C269.608 26.546 271.855 27.8392 274.569 27.8392C275.926 27.8392 277.155 27.5212 278.237 26.8852C280.399 25.6132 281.714 23.1963 281.714 20.0799C281.714 18.5534 281.396 17.1966 280.781 16.0094C279.53 13.6562 277.283 12.2993 274.569 12.2993C273.212 12.2993 272.004 12.6173 270.923 13.2534C268.76 14.5466 267.446 17.0058 267.446 20.0799ZM269.778 20.0799C269.778 16.4546 271.728 14.2074 274.569 14.2074C277.41 14.2074 279.36 16.4758 279.36 20.0799C279.36 23.7475 277.431 25.9524 274.569 25.9524C271.707 25.9524 269.778 23.7051 269.778 20.0799ZM282.938 20.0799C282.938 21.6487 283.256 23.0267 283.871 24.1927C285.1 26.546 287.347 27.8392 290.061 27.8392C291.418 27.8392 292.647 27.5212 293.729 26.8852C295.891 25.6132 297.206 23.1963 297.206 20.0799C297.206 18.5534 296.888 17.1966 296.273 16.0094C295.022 13.6562 292.775 12.2993 290.061 12.2993C288.704 12.2993 287.496 12.6173 286.415 13.2534C284.252 14.5466 282.938 17.0058 282.938 20.0799ZM285.27 20.0799C285.27 16.4546 287.22 14.2074 290.061 14.2074C292.902 14.2074 294.852 16.4758 294.852 20.0799C294.852 23.7475 292.923 25.9524 290.061 25.9524C287.199 25.9524 285.27 23.7051 285.27 20.0799ZM309.178 25.592H301.546V12.6597L299.299 12.6597V27.5L309.178 27.5V25.592Z" fill="currentColor"/>
</svg>
